<svg width="388" height="100" viewBox="0 0 388 100" fill="none" xmlns="http://www.w3.org/2000/svg">
<rect x="0.756744" width="386.487" height="100" fill="#DC143C"/>
<path d="M43.1626 56.2192V68.4052H36.0364V33.819H49.5288C52.1259 33.819 54.4063 34.2941 56.37 35.2443C58.3495 36.1944 59.8698 37.5484 60.9308 39.3062C61.9918 41.0482 62.5223 43.0357 62.5223 45.2685C62.5223 48.6575 61.3584 51.3338 59.0305 53.2975C56.7184 55.2453 53.5116 56.2192 49.41 56.2192H43.1626ZM43.1626 50.447H49.5288C51.4133 50.447 52.8464 50.0036 53.8283 49.1167C54.826 48.2299 55.3248 46.963 55.3248 45.3161C55.3248 43.6216 54.826 42.2518 53.8283 41.2066C52.8306 40.1614 51.4529 39.623 49.695 39.5913H43.1626V50.447ZM112.39 51.896C112.39 55.3007 111.788 58.2859 110.585 60.8513C109.381 63.4168 107.655 65.3963 105.406 66.7899C103.173 68.1835 100.608 68.8802 97.7099 68.8802C94.8436 68.8802 92.286 68.1914 90.0373 66.8136C87.7886 65.4359 86.0466 63.4722 84.8114 60.9226C83.5762 58.3571 82.9506 55.4116 82.9348 52.086V50.3757C82.9348 46.9709 83.5445 43.9779 84.7639 41.3966C85.9991 38.7995 87.7332 36.812 89.966 35.4343C92.2148 34.0407 94.7802 33.3439 97.6624 33.3439C100.545 33.3439 103.102 34.0407 105.335 35.4343C107.584 36.812 109.318 38.7995 110.537 41.3966C111.772 43.9779 112.39 46.963 112.39 50.352V51.896ZM105.169 50.3282C105.169 46.7017 104.519 43.9462 103.221 42.0617C101.922 40.1772 100.07 39.235 97.6624 39.235C95.2712 39.235 93.4262 40.1693 92.1277 42.038C90.8291 43.8908 90.1719 46.6146 90.1561 50.2094V51.896C90.1561 55.4274 90.8054 58.1671 92.1039 60.1149C93.4025 62.0628 95.2712 63.0367 97.7099 63.0367C100.101 63.0367 101.938 62.1024 103.221 60.2337C104.504 58.3492 105.153 55.6096 105.169 52.0147V50.3282ZM141.235 62.6804H156.367V68.4052H134.109V33.819H141.235V62.6804ZM201.721 58.4284L206.377 33.819H213.479L205.807 68.4052H198.633L193.003 45.2685L187.374 68.4052H180.2L172.527 33.819L179.63 33.819L184.309 58.3809L190.01 33.819H196.044L201.721 58.4284ZM254.701 53.4162H241.018V62.6804H257.076V68.4052H233.892V33.819L257.029 33.819V39.5913H241.018V47.834H254.701V53.4162ZM297.323 61.2789H284.829L282.453 68.4052H274.876L287.75 33.819H294.354L307.3 68.4052H299.722L297.323 61.2789ZM286.753 55.5066H295.399L291.052 42.5606L286.753 55.5066ZM339.875 55.7442L334.197 55.7442V68.4052H327.071V33.819H339.922C344.008 33.819 347.159 34.7296 349.376 36.5507C351.593 38.3719 352.702 40.9453 352.702 44.2709C352.702 46.6305 352.187 48.6021 351.158 50.1857C350.144 51.7534 348.6 53.0045 346.526 53.9388L354.008 68.0726V68.4052H346.36L339.875 55.7442ZM334.197 49.9719L339.946 49.9719C341.735 49.9719 343.121 49.5206 344.103 48.6179C345.085 47.6994 345.576 46.4404 345.576 44.841C345.576 43.2098 345.109 41.9271 344.174 40.9928C343.256 40.0585 341.838 39.5913 339.922 39.5913L334.197 39.5913V49.9719Z" fill="white"/>
</svg>
